<?xml version="1.0" encoding="UTF-8" standalone="no"?>
<!-- Created with Inkscape (http://www.inkscape.org/) -->

<svg
   xmlns:dc="http://purl.org/dc/elements/1.1/"
   xmlns:cc="http://creativecommons.org/ns#"
   xmlns:rdf="http://www.w3.org/1999/02/22-rdf-syntax-ns#"
   xmlns:svg="http://www.w3.org/2000/svg"
   xmlns="http://www.w3.org/2000/svg"
   xmlns:sodipodi="http://sodipodi.sourceforge.net/DTD/sodipodi-0.dtd"
   xmlns:inkscape="http://www.inkscape.org/namespaces/inkscape"
   width="816.64343mm"
   height="184.91042mm"
   viewBox="0 0 2893.6185 655.19438"
   id="svg2"
   version="1.1"
   inkscape:version="0.91 r13725"
   sodipodi:docname="logo-path.svg">
  <defs
     id="defs4" />
  <sodipodi:namedview
     id="base"
     pagecolor="#ffffff"
     bordercolor="#666666"
     borderopacity="1.0"
     inkscape:pageopacity="0.0"
     inkscape:pageshadow="2"
     inkscape:zoom="0.24748737"
     inkscape:cx="1776.878"
     inkscape:cy="530.66479"
     inkscape:document-units="px"
     inkscape:current-layer="layer1"
     showgrid="false"
     inkscape:showpageshadow="true"
     showborder="true"
     inkscape:window-width="1280"
     inkscape:window-height="708"
     inkscape:window-x="0"
     inkscape:window-y="0"
     inkscape:window-maximized="0"
     fit-margin-top="0"
     fit-margin-left="0"
     fit-margin-right="0"
     fit-margin-bottom="0" />
  <metadata
     id="metadata7">
    <rdf:RDF>
      <cc:Work
         rdf:about="">
        <dc:format>image/svg+xml</dc:format>
        <dc:type
           rdf:resource="http://purl.org/dc/dcmitype/StillImage" />
        <dc:title></dc:title>
      </cc:Work>
    </rdf:RDF>
  </metadata>
  <g
     inkscape:label="Layer 1"
     inkscape:groupmode="layer"
     id="layer1"
     transform="translate(588.83698,-1085.4431)">
    <g
       id="g3407"
       transform="translate(0,-1860.4383)">
      <ellipse
         transform="matrix(0.85153092,-0.5243044,0.50125209,0.8653013,0,0)"
         ry="30.807661"
         rx="45.54805"
         cy="2385.0347"
         cx="-2021.4886"
         id="ellipse3409"
         style="color:#000000;clip-rule:nonzero;display:inline;overflow:visible;visibility:visible;opacity:1;isolation:auto;mix-blend-mode:normal;color-interpolation:sRGB;color-interpolation-filters:linearRGB;solid-color:#000000;solid-opacity:1;fill:#000000;fill-opacity:1;fill-rule:nonzero;stroke:none;stroke-width:20;stroke-linecap:round;stroke-linejoin:round;stroke-miterlimit:4;stroke-dasharray:none;stroke-dashoffset:0;stroke-opacity:1;color-rendering:auto;image-rendering:auto;shape-rendering:auto;text-rendering:auto;enable-background:accumulate" />
      <ellipse
         style="color:#000000;clip-rule:nonzero;display:inline;overflow:visible;visibility:visible;opacity:1;isolation:auto;mix-blend-mode:normal;color-interpolation:sRGB;color-interpolation-filters:linearRGB;solid-color:#000000;solid-opacity:1;fill:#000000;fill-opacity:1;fill-rule:nonzero;stroke:none;stroke-width:20;stroke-linecap:round;stroke-linejoin:round;stroke-miterlimit:4;stroke-dasharray:none;stroke-dashoffset:0;stroke-opacity:1;color-rendering:auto;image-rendering:auto;shape-rendering:auto;text-rendering:auto;enable-background:accumulate"
         id="ellipse3411"
         cx="-2032.6866"
         cy="2443.9575"
         rx="45.54805"
         ry="30.807661"
         transform="matrix(0.85153092,-0.5243044,0.50125209,0.8653013,0,0)" />
      <ellipse
         style="color:#000000;clip-rule:nonzero;display:inline;overflow:visible;visibility:visible;opacity:1;isolation:auto;mix-blend-mode:normal;color-interpolation:sRGB;color-interpolation-filters:linearRGB;solid-color:#000000;solid-opacity:1;fill:#000000;fill-opacity:1;fill-rule:nonzero;stroke:none;stroke-width:20;stroke-linecap:round;stroke-linejoin:round;stroke-miterlimit:4;stroke-dasharray:none;stroke-dashoffset:0;stroke-opacity:1;color-rendering:auto;image-rendering:auto;shape-rendering:auto;text-rendering:auto;enable-background:accumulate"
         id="ellipse3413"
         cx="-2059.012"
         cy="2500.6489"
         rx="45.54805"
         ry="30.807661"
         transform="matrix(0.85153092,-0.5243044,0.50125209,0.8653013,0,0)" />
      <ellipse
         style="color:#000000;clip-rule:nonzero;display:inline;overflow:visible;visibility:visible;opacity:1;isolation:auto;mix-blend-mode:normal;color-interpolation:sRGB;color-interpolation-filters:linearRGB;solid-color:#000000;solid-opacity:1;fill:#000000;fill-opacity:1;fill-rule:nonzero;stroke:none;stroke-width:20;stroke-linecap:round;stroke-linejoin:round;stroke-miterlimit:4;stroke-dasharray:none;stroke-dashoffset:0;stroke-opacity:1;color-rendering:auto;image-rendering:auto;shape-rendering:auto;text-rendering:auto;enable-background:accumulate"
         id="ellipse3415"
         cx="-2104.6548"
         cy="2550.2573"
         rx="45.54805"
         ry="30.807661"
         transform="matrix(0.85153092,-0.5243044,0.50125209,0.8653013,0,0)" />
      <ellipse
         transform="matrix(0.85153092,-0.5243044,0.50125209,0.8653013,0,0)"
         ry="30.807661"
         rx="45.54805"
         cy="2594.6211"
         cx="-2158.9534"
         id="ellipse3417"
         style="color:#000000;clip-rule:nonzero;display:inline;overflow:visible;visibility:visible;opacity:1;isolation:auto;mix-blend-mode:normal;color-interpolation:sRGB;color-interpolation-filters:linearRGB;solid-color:#000000;solid-opacity:1;fill:#000000;fill-opacity:1;fill-rule:nonzero;stroke:none;stroke-width:20;stroke-linecap:round;stroke-linejoin:round;stroke-miterlimit:4;stroke-dasharray:none;stroke-dashoffset:0;stroke-opacity:1;color-rendering:auto;image-rendering:auto;shape-rendering:auto;text-rendering:auto;enable-background:accumulate" />
      <path
         style="fill:#000000;fill-rule:evenodd;stroke:none;stroke-width:1px;stroke-linecap:butt;stroke-linejoin:miter;stroke-opacity:1"
         d="m -531.41704,3593.7324 c 0,0 6.57091,5.521 7.90714,-2.0888 1.33626,-7.6097 -1.54553,-22.6983 14.62931,-43.7935 16.17484,-21.0952 35.51023,-36.7075 44.53263,-61.1706 9.02241,-24.4631 4.43535,-47.5949 0.71034,-55.5906 -3.72501,-7.9956 -8.66226,-24.5514 -15.73136,-24.3847 -7.06911,0.1666 -5.38764,7.2 -2.23899,12.178 3.14865,4.9779 13.20667,24.4442 12.53011,38.6062 -0.67657,14.1621 -3.38479,27.8668 -14.76023,38.2393 -5.50264,5.0174 -20.22342,13.7659 -33.95661,21.4617 -14.65709,8.2135 -25.33208,23.0852 -25.33208,23.0852 l 12.07869,23.5165 z"
         id="path3419"
         inkscape:connector-curvature="0"
         sodipodi:nodetypes="csssssssssccc" />
      <path
         style="fill:none;fill-rule:evenodd;stroke:#000000;stroke-width:9;stroke-linecap:round;stroke-linejoin:miter;stroke-miterlimit:4;stroke-dasharray:none;stroke-opacity:1"
         d="m -564.19143,3148.7578 c 21.06286,60.5569 37.47743,100.5104 2.80838,172.4956 -64.34445,133.6017 25.47313,194.7714 35.10476,275.2588"
         id="path3421"
         inkscape:connector-curvature="0"
         sodipodi:nodetypes="csc" />
    </g>
    <g
       style="font-style:normal;font-weight:normal;font-size:600.18035889px;line-height:125%;font-family:sans-serif;text-align:start;letter-spacing:0px;word-spacing:0px;text-anchor:start;fill:#000000;fill-opacity:1;stroke:none;stroke-width:1px;stroke-linecap:butt;stroke-linejoin:miter;stroke-opacity:1"
       id="text3423">
      <path
         d="m -379.54401,1519.9737 0,-190.2572 q 0,-45.0135 -3.60108,-63.0189 -3.60108,-18.0054 -3.60108,-21.6065 0,-9.6029 24.00721,-14.4043 24.6074,-4.8015 36.61101,-4.8015 12.0036,0 15.60469,2.4008 4.20126,2.4007 6.60198,7.8023 2.40072,4.8014 3.60108,8.4025 1.20036,3.0009 2.40072,10.8033 1.80054,7.8023 2.40072,9.6029 14.40433,-19.2058 38.41155,-32.4098 24.00721,-13.2039 51.01533,-13.2039 45.01352,0 66.62002,24.0072 21.60649,23.407 21.60649,73.222 l 0,203.4611 q 0,19.2058 -36.01082,19.2058 l -16.80505,0 q -36.01082,0 -36.01082,-19.2058 l 0,-190.2572 q 0,-37.2111 -36.01082,-37.2111 -30.00902,0 -48.01443,34.8104 l 0,192.6579 q 0,19.2058 -36.01082,19.2058 l -16.80505,0 q -36.01083,0 -36.01083,-19.2058 z"
         style="font-style:normal;font-variant:normal;font-weight:bold;font-stretch:normal;font-family:Asap;-inkscape-font-specification:'Asap Bold'"
         id="path3479" />
      <path
         d="m -20.251653,1501.3681 q -37.211182,-42.0126 -37.211182,-120.6362 0,-78.6237 37.211182,-120.0361 37.211182,-41.4124 108.632645,-41.4124 71.421458,0 108.032468,41.4124 37.21118,41.4124 37.21118,120.0361 0,78.6236 -37.21118,120.6362 -36.61101,41.4125 -108.032468,41.4125 -71.421463,0 -108.632645,-41.4125 z m 52.815872,-120.036 q 0,91.2274 55.216593,91.2274 55.816778,0 55.816778,-91.2274 0,-91.8276 -55.816778,-91.8276 -55.216593,0 -55.216593,91.8276 z"
         style="font-style:normal;font-variant:normal;font-weight:bold;font-stretch:normal;font-family:Asap;-inkscape-font-specification:'Asap Bold'"
         id="path3481" />
      <path
         d="m 415.09477,1472.5595 16.20487,-2.4008 q 7.80234,0 13.20396,18.0055 5.40163,17.4052 5.40163,25.2075 0,29.4089 -57.61732,29.4089 -87.62633,0 -87.62633,-97.2292 l 0,-151.2455 -9.60289,0 q -18.00541,0 -18.00541,-30.009 l 0,-10.2031 q 0,-30.009 18.00541,-30.009 l 9.60289,0 7.80235,-57.0171 q 3.0009,-19.2058 32.40973,-19.2058 l 18.6056,0 q 30.00901,0 30.00901,19.2058 l 0,57.0171 29.40884,0 q 18.00541,0 18.00541,30.009 l 0,10.2031 q 0,30.009 -18.00541,30.009 l -29.40884,0 0,152.4458 q 0,25.8078 21.6065,25.8078 z"
         style="font-style:normal;font-variant:normal;font-weight:bold;font-stretch:normal;font-family:Asap;-inkscape-font-specification:'Asap Bold'"
         id="path3483" />
      <path
         d="m 526.00622,1501.3681 q -37.21118,-42.0126 -37.21118,-120.6362 0,-78.6237 37.21118,-120.0361 37.21118,-41.4124 108.63265,-41.4124 71.42146,0 108.03246,41.4124 37.21118,41.4124 37.21118,120.0361 0,78.6236 -37.21118,120.6362 -36.611,41.4125 -108.03246,41.4125 -71.42147,0 -108.63265,-41.4125 z m 52.81587,-120.036 q 0,91.2274 55.2166,91.2274 55.81677,0 55.81677,-91.2274 0,-91.8276 -55.81677,-91.8276 -55.2166,0 -55.2166,91.8276 z"
         style="font-style:normal;font-variant:normal;font-weight:bold;font-stretch:normal;font-family:Asap;-inkscape-font-specification:'Asap Bold'"
         id="path3485" />
      <path
         d="m 981.15865,1542.7806 q -76.82308,0 -114.03427,-39.0118 -37.21118,-39.6119 -37.21118,-120.6362 0,-81.6245 37.21118,-122.4368 37.81137,-41.4124 117.03517,-41.4124 36.61105,0 67.82035,11.4034 31.8096,10.8032 31.8096,30.009 0,9.0027 -12.6038,27.6083 -12.0036,18.6056 -19.2058,18.6056 -2.4007,0 -10.8032,-4.2013 -26.4079,-13.2039 -57.01715,-13.2039 -30.60919,0 -46.81406,22.2066 -16.20487,22.2067 -16.20487,69.0208 0,46.814 15.00451,69.6209 15.60469,22.2067 46.81406,22.2067 31.80961,0 61.21841,-13.8042 9.6029,-3.6011 10.8032,-3.6011 9.0027,0 19.806,18.0054 11.4034,17.4053 11.4034,28.2085 0,10.8033 -13.204,19.806 -13.2039,9.0027 -31.8095,13.2039 -38.4116,8.4026 -60.01805,8.4026 z"
         style="font-style:normal;font-variant:normal;font-weight:bold;font-stretch:normal;font-family:Asap;-inkscape-font-specification:'Asap Bold'"
         id="path3487" />
      <path
         d="m 1135.0299,1519.9737 0,-415.3248 q 0,-19.2058 36.0109,-19.2058 l 16.805,0 q 36.0108,0 36.0108,19.2058 l 0,155.4467 q 34.2103,-40.8122 84.6255,-40.8122 90.6272,0 90.6272,97.2292 l 0,203.4611 q 0,19.2058 -36.0108,19.2058 l -16.8051,0 q -36.0108,0 -36.0108,-19.2058 l 0,-190.2572 q 0,-37.2111 -38.4115,-37.2111 -30.0091,0 -48.0145,34.8104 l 0,192.6579 q 0,19.2058 -36.0108,19.2058 l -16.805,0 q -36.0109,0 -36.0109,-19.2058 z"
         style="font-style:normal;font-variant:normal;font-weight:bold;font-stretch:normal;font-family:Asap;-inkscape-font-specification:'Asap Bold'"
         id="path3489" />
      <path
         d="m 1496.6105,1501.3681 q -37.2112,-42.0126 -37.2112,-120.6362 0,-78.6237 37.2112,-120.0361 37.2112,-41.4124 108.6326,-41.4124 71.4215,0 108.0325,41.4124 37.2112,41.4124 37.2112,120.0361 0,78.6236 -37.2112,120.6362 -36.611,41.4125 -108.0325,41.4125 -71.4214,0 -108.6326,-41.4125 z m 52.8158,-120.036 q 0,91.2274 55.2166,91.2274 55.8168,0 55.8168,-91.2274 0,-91.8276 -55.8168,-91.8276 -55.2166,0 -55.2166,91.8276 z"
         style="font-style:normal;font-variant:normal;font-weight:bold;font-stretch:normal;font-family:Asap;-inkscape-font-specification:'Asap Bold'"
         id="path3491" />
      <path
         d="m 1812.5209,1519.9737 0,-190.2572 q 0,-45.0135 -3.601,-63.0189 -3.6011,-18.0054 -3.6011,-21.6065 0,-9.6029 24.0072,-14.4043 24.6074,-4.8015 36.611,-4.8015 12.0036,0 15.6047,2.4008 4.2012,2.4007 6.602,7.8023 2.4007,4.8014 3.601,8.4025 1.2004,3.0009 2.4008,10.8033 1.8005,7.8023 2.4007,9.6029 25.2076,-45.6137 65.4196,-45.6137 19.2058,0 26.408,10.203 7.8023,9.6029 7.8023,22.2067 0,12.6038 -5.4016,31.8096 -5.4016,18.6055 -13.204,18.6055 -3.601,0 -12.6038,-2.4007 -9.0027,-2.4007 -15.6046,-2.4007 -30.0091,0 -48.0145,30.009 l 0,192.6579 q 0,19.2058 -36.0108,19.2058 l -16.805,0 q -36.0109,0 -36.0109,-19.2058 z"
         style="font-style:normal;font-variant:normal;font-weight:bold;font-stretch:normal;font-family:Asap;-inkscape-font-specification:'Asap Bold'"
         id="path3493" />
      <path
         d="m 2133.13,1542.7806 q -49.815,0 -81.0244,-42.6128 -31.2094,-43.213 -31.2094,-118.2356 0,-75.6227 33.01,-118.8357 33.6101,-43.8131 93.6281,-43.8131 35.4106,0 61.2184,18.6055 l 0,-133.24 q 0,-19.2058 36.0108,-19.2058 l 16.8051,0 q 36.0108,0 36.0108,19.2058 l 0,327.6985 q 0,37.2112 3.6011,62.4187 l 3.601,24.6074 q 0,9.6029 -24.6074,14.4044 -24.0072,4.8014 -36.0108,4.8014 -12.0036,0 -16.2048,-2.4007 -3.6011,-2.4007 -6.0018,-7.8024 -2.4008,-5.4016 -3.6011,-9.0027 -1.2004,-3.601 -3.0009,-11.4034 -1.2004,-8.4025 -1.8006,-10.2031 -10.8032,19.806 -32.4097,32.4098 -21.0063,12.6038 -48.0144,12.6038 z m 26.4079,-72.6219 q 28.8087,0 49.2148,-35.4106 l 0,-133.8402 q -20.4061,-11.4034 -42.0126,-11.4034 -55.8168,0 -55.8168,90.6272 0,90.027 48.6146,90.027 z"
         style="font-style:normal;font-variant:normal;font-weight:bold;font-stretch:normal;font-family:Asap;-inkscape-font-specification:'Asap Bold'"
         id="path3495" />
    </g>
  </g>
</svg>
